<?xml version="1.0" encoding="UTF-8"?>
<svg version="1.1" xmlns="http://www.w3.org/2000/svg" width="646" height="386">
<path d="M0 0 C0.83577072 -0.00570007 1.67154144 -0.01140015 2.53263855 -0.01727295 C4.31235482 -0.02674717 6.09208883 -0.03326649 7.87182617 -0.03710938 C10.55615626 -0.04669884 13.23968185 -0.07764809 15.92382812 -0.109375 C26.53906355 -0.17522588 37.28583815 -0.22231547 46.79296875 5.203125 C51.55156703 10.78028949 53.70079864 16.277135 53.24609375 23.59375 C52.25850877 29.28087729 50.00422015 33.39827696 45.66796875 37.203125 C42.79296875 39.203125 42.79296875 39.203125 40.79296875 39.203125 C42.51106177 42.41750528 44.24440204 45.62342162 45.98046875 48.828125 C46.46322266 49.73175781 46.94597656 50.63539063 47.44335938 51.56640625 C52.03725063 60.4580737 52.03725063 60.4580737 59.60546875 66.578125 C60.32734375 66.784375 61.04921875 66.990625 61.79296875 67.203125 C61.79296875 69.843125 61.79296875 72.483125 61.79296875 75.203125 C45.19941665 76.05286593 45.19941665 76.05286593 38.79296875 71.203125 C37.55859375 69.0625 37.55859375 69.0625 36.79296875 67.203125 C36.13296875 67.203125 35.47296875 67.203125 34.79296875 67.203125 C31.29296875 60.203125 31.29296875 60.203125 27.79296875 53.203125 C27.38820313 52.45546875 26.9834375 51.7078125 26.56640625 50.9375 C25.79296875 49.203125 25.79296875 49.203125 25.79296875 46.203125 C25.13296875 46.203125 24.47296875 46.203125 23.79296875 46.203125 C23.79296875 45.543125 23.79296875 44.883125 23.79296875 44.203125 C21.81296875 44.203125 19.83296875 44.203125 17.79296875 44.203125 C17.93115407 47.68264023 18.07979476 51.16162995 18.23046875 54.640625 C18.26978516 55.63384766 18.30910156 56.62707031 18.34960938 57.65039062 C18.39150391 58.59462891 18.43339844 59.53886719 18.4765625 60.51171875 C18.51322021 61.38626709 18.54987793 62.26081543 18.58764648 63.16186523 C18.57477941 65.1958652 18.57477941 65.1958652 19.79296875 66.203125 C21.14043959 66.43387582 22.4967444 66.61465563 23.85546875 66.765625 C25.15484375 66.91 26.45421875 67.054375 27.79296875 67.203125 C27.79296875 69.843125 27.79296875 72.483125 27.79296875 75.203125 C15.58296875 75.203125 3.37296875 75.203125 -9.20703125 75.203125 C-9.20703125 72.563125 -9.20703125 69.923125 -9.20703125 67.203125 C-7.50546875 66.9865625 -7.50546875 66.9865625 -5.76953125 66.765625 C-2.39925924 66.59141022 -2.39925924 66.59141022 -1.20703125 65.203125 C-1.11343935 63.48447091 -1.08958514 61.76196756 -1.09350586 60.04077148 C-1.09358139 58.93970566 -1.09365692 57.83863983 -1.09373474 56.70420837 C-1.09889603 55.5063118 -1.10405731 54.30841522 -1.109375 53.07421875 C-1.11078995 51.85485123 -1.1122049 50.6354837 -1.11366272 49.37916565 C-1.11928158 45.4662943 -1.13183729 41.55347919 -1.14453125 37.640625 C-1.14954382 34.99544353 -1.15410715 32.35026117 -1.15820312 29.70507812 C-1.16925714 23.20440774 -1.18601361 16.70377039 -1.20703125 10.203125 C-3.84703125 9.873125 -6.48703125 9.543125 -9.20703125 9.203125 C-9.3046875 3.05078125 -9.3046875 3.05078125 -9.20703125 1.203125 C-7.15103829 -0.85286796 -2.82933934 0.0148399 0 0 Z M17.79296875 9.203125 C17.79296875 17.783125 17.79296875 26.363125 17.79296875 35.203125 C27.10248653 36.20746278 27.10248653 36.20746278 30.85546875 32.890625 C34.44492814 27.91169745 34.1621548 23.11956807 33.79296875 17.203125 C32.62552109 12.63062167 31.8191889 12.22279011 27.79296875 9.203125 C24.49296875 9.203125 21.19296875 9.203125 17.79296875 9.203125 Z " fill="#DB7835" transform="translate(337.20703125,154.796875)"/>
<path d="M0 0 C1.20434944 0.01188103 1.20434944 0.01188103 2.43302917 0.02400208 C3.34099747 0.03118759 4.24896576 0.03837311 5.18444824 0.04577637 C6.17293259 0.06026321 7.16141693 0.07475006 8.17985535 0.0896759 C9.18997177 0.1038002 10.2000882 0.1179245 11.24081421 0.13247681 C13.38371187 0.16566421 15.52656224 0.20203016 17.6693573 0.24128723 C20.94827532 0.29629532 24.2267857 0.32498277 27.50602722 0.35334778 C29.58483189 0.38881741 31.66361019 0.42587503 33.74235535 0.4646759 C34.724767 0.4690416 35.70717865 0.47340729 36.71936035 0.47790527 C37.63678513 0.50085159 38.5542099 0.52379791 39.49943542 0.54743958 C40.70736504 0.56528755 40.70736504 0.56528755 41.93969727 0.58349609 C45.11075033 1.334211 46.16931259 2.53364598 48.1603241 5.10920715 C48.5533318 7.81371513 48.70135027 10.11159706 48.66825867 12.81440735 C48.67449863 13.59496129 48.68073859 14.37551522 48.68716764 15.17972231 C48.70313507 17.79779968 48.69047916 20.41495084 48.67790222 23.03303528 C48.68332169 24.90889022 48.69044336 26.7847409 48.69914246 28.6605835 C48.71739961 33.75766596 48.71029838 38.85442507 48.69762611 43.95151329 C48.68751085 49.28147133 48.69688769 54.61140137 48.70317078 59.94136047 C48.71045148 68.89270507 48.70084837 77.84391773 48.68180847 86.79524231 C48.66003896 97.1495364 48.66709003 107.50351546 48.68911409 117.85780191 C48.70725603 126.74197543 48.70983231 135.62605402 48.69935942 144.51024008 C48.69311786 149.8189215 48.69230707 155.12745476 48.70550537 160.43612671 C48.71704567 165.42665951 48.70907142 170.41678548 48.68592834 175.40727425 C48.68063152 177.24068081 48.68217162 179.07412151 48.690979 180.90751457 C48.70187989 183.40681025 48.68823805 185.90479524 48.66825867 188.40400696 C48.67718155 189.13279824 48.68610444 189.86158952 48.69529772 190.61246538 C48.6420523 194.03672425 48.38846718 195.81330926 46.27016068 198.56071854 C43.74941729 200.41078715 42.49257993 200.59665076 39.39176941 200.56330872 C38.45109619 200.56300659 37.51042297 200.56270447 36.54124451 200.56239319 C35.53382202 200.54174805 34.52639954 200.52110291 33.4884491 200.49983215 C32.45089478 200.49417236 31.41334045 200.48851257 30.34434509 200.48268127 C27.03253418 200.46030207 23.72180765 200.41010135 20.4103241 200.35920715 C18.16424598 200.33914422 15.91815089 200.32089309 13.67204285 200.30451965 C8.16776701 200.26043233 2.66412303 200.19350456 -2.8396759 200.10920715 C-3.8396759 197.10920715 -3.8396759 197.10920715 -2.8396759 189.10920715 C10.6903241 188.77920715 24.2203241 188.44920715 38.1603241 188.10920715 C38.1603241 129.36920715 38.1603241 70.62920715 38.1603241 10.10920715 C36.8403241 10.43920715 35.5203241 10.76920715 34.1603241 11.10920715 C21.83685058 11.62841174 9.46279823 10.78390527 -2.8396759 10.10920715 C-3.80690935 6.72389009 -3.76652389 4.53854472 -2.8396759 1.10920715 C-1.8396759 0.10920715 -1.8396759 0.10920715 0 0 Z " fill="#D17538" transform="translate(388.8396759033203,90.89079284667969)"/>
<path d="M0 0 C0.125 6.75 0.125 6.75 -1 9 C-14.48472609 11.24745435 -28.3292689 10 -42 10 C-42.33 68.74 -42.66 127.48 -43 188 C-29.14 188 -15.28 188 -1 188 C-0.67 191.3 -0.34 194.6 0 198 C-1.580338 199.580338 -3.18739083 199.14295383 -5.38037109 199.16113281 C-6.31158783 199.17074036 -7.24280457 199.1803479 -8.20223999 199.19024658 C-9.21573517 199.19449646 -10.22923035 199.19874634 -11.2734375 199.203125 C-12.30812164 199.20882507 -13.34280579 199.21452515 -14.40884399 199.22039795 C-16.60295585 199.22986433 -18.79708203 199.2363884 -20.99121094 199.24023438 C-24.35376727 199.24993872 -27.71571233 199.28094657 -31.078125 199.3125 C-33.20572552 199.31902976 -35.33333043 199.32428034 -37.4609375 199.328125 C-38.97510757 199.3466452 -38.97510757 199.3466452 -40.51986694 199.36553955 C-41.92614853 199.3610379 -41.92614853 199.3610379 -43.36083984 199.35644531 C-44.59874771 199.36191376 -44.59874771 199.36191376 -45.86166382 199.36749268 C-48.50886207 198.91254739 -49.35153277 198.07616973 -51 196 C-52.50650427 192.98699145 -52.1480049 189.8783827 -52.14717102 186.57327271 C-52.15084771 185.79851117 -52.1545244 185.02374964 -52.1583125 184.22551048 C-52.16937331 181.61534022 -52.1731972 179.00520974 -52.17700195 176.39501953 C-52.1832647 174.52931592 -52.18991133 172.66361357 -52.19691467 170.7979126 C-52.21433976 165.71941637 -52.22488013 160.64092956 -52.2331202 155.56241083 C-52.23826621 152.39207831 -52.24434206 149.22174874 -52.25063133 146.0514183 C-52.26968596 136.13943189 -52.28391761 126.22745295 -52.2922433 116.31545174 C-52.30202357 104.85986198 -52.32836259 93.40446504 -52.36874419 81.94894326 C-52.39886075 73.10305206 -52.41370785 64.25721628 -52.41702431 55.41127479 C-52.41937953 50.12376796 -52.42840132 44.83646706 -52.45348549 39.54901505 C-52.47669385 34.57661525 -52.48102871 29.60455805 -52.47072411 24.63211823 C-52.4702269 22.80514515 -52.47660152 20.97815561 -52.49028015 19.15123367 C-52.5078875 16.66063892 -52.50094892 14.17128863 -52.48774719 11.68069458 C-52.49871644 10.95443001 -52.50968568 10.22816544 -52.52098733 9.47989285 C-52.47701013 6.05343154 -52.23006975 4.296687 -50.10229778 1.55281353 C-47.69873902 -0.22251944 -46.52776718 -0.51550841 -43.5703125 -0.56176758 C-42.7026123 -0.5847139 -41.83491211 -0.60766022 -40.94091797 -0.63130188 C-40.01166504 -0.63566757 -39.08241211 -0.64003326 -38.125 -0.64453125 C-36.68278076 -0.67289314 -36.68278076 -0.67289314 -35.21142578 -0.701828 C-33.18080714 -0.73829946 -31.15000261 -0.76544686 -29.11914062 -0.78393555 C-26.01110079 -0.81239834 -22.90444537 -0.86746247 -19.796875 -0.92773438 C-17.82294131 -0.95988369 -15.8489825 -0.99053311 -13.875 -1.01953125 C-12.94574707 -1.0340181 -12.01649414 -1.04850494 -11.05908203 -1.06343079 C-9.75753174 -1.07420906 -9.75753174 -1.07420906 -8.4296875 -1.08520508 C-7.66897949 -1.09312576 -6.90827148 -1.10104645 -6.12451172 -1.10920715 C-3.96269931 -0.99808262 -2.07622731 -0.59603653 0 0 Z " fill="#DB7834" transform="translate(261,92)"/>
<path d="M0 0 C3.03866101 2.63570814 3.88387629 4.62567621 4.796875 8.55859375 C4.72261159 11.75192044 4.06066209 13.16291311 2.296875 15.80859375 C-1.3191125 18.339785 -4.87490034 18.37362688 -9.203125 18.55859375 C-9.60144531 17.63626953 -9.60144531 17.63626953 -10.0078125 16.6953125 C-10.36101562 15.88707031 -10.71421875 15.07882813 -11.078125 14.24609375 C-11.60019531 13.04533203 -11.60019531 13.04533203 -12.1328125 11.8203125 C-13.22884394 9.36241035 -13.22884394 9.36241035 -15.203125 6.55859375 C-17.52962965 6.0426437 -17.52962965 6.0426437 -20.140625 6.12109375 C-21.01589844 6.10175781 -21.89117187 6.08242187 -22.79296875 6.0625 C-25.33108695 6.35575976 -25.33108695 6.35575976 -27.0234375 8.3671875 C-28.83263718 11.72798558 -28.16965841 13.95020236 -27.203125 17.55859375 C-23.45637793 22.60229173 -17.71939425 25.18493641 -11.828125 26.87109375 C-4.75405562 29.08400776 1.86510927 34.26776858 5.796875 40.55859375 C7.99753599 46.00784952 8.45313359 50.93118884 6.796875 56.55859375 C2.90761161 63.61500975 -2.63016166 68.9900425 -10.390625 71.37109375 C-20.13981868 73.6992594 -30.58410133 73.63315387 -39.515625 68.74609375 C-45.79908714 63.63164782 -45.79908714 63.63164782 -46.62109375 59.4140625 C-46.87825644 55.22300571 -46.57189341 53.11174637 -44.203125 49.55859375 C-40.30551062 46.96018416 -37.85718621 46.71372912 -33.203125 46.55859375 C-31.69239696 48.06932179 -31.75966955 49.72538901 -31.390625 51.80859375 C-30.51233965 55.95568546 -29.25625989 58.50545886 -26.203125 61.55859375 C-22.50322963 63.40854144 -18.24208025 63.02186649 -14.203125 62.55859375 C-10.95756535 60.50043397 -10.37989866 59.26568841 -9.453125 55.55859375 C-9.14776135 52.39596302 -9.14776135 52.39596302 -9.203125 48.55859375 C-9.76 48.29046875 -10.316875 48.02234375 -10.890625 47.74609375 C-13.203125 46.55859375 -13.203125 46.55859375 -15.578125 45.05859375 C-18.14929371 43.47433926 -18.14929371 43.47433926 -20.98828125 42.63671875 C-28.98167129 39.9560679 -36.53276038 36.79012606 -41.203125 29.55859375 C-41.80125 28.67171875 -42.399375 27.78484375 -43.015625 26.87109375 C-45.09231729 21.07821527 -45.37954485 15.60091029 -43.13671875 9.80078125 C-39.96734649 4.01473379 -36.2827956 0.20460423 -30.203125 -2.44140625 C-20.90164644 -5.10157089 -8.38487265 -5.10320698 0 0 Z " fill="#DED7CC" transform="translate(300.203125,158.44140625)"/>
<path d="M0 0 C1.32091644 0.00045319 1.32091644 0.00045319 2.66851807 0.00091553 C4.08121979 0.03188324 4.08121979 0.03188324 5.52246094 0.06347656 C6.49342712 0.06913635 7.46439331 0.07479614 8.46478271 0.08062744 C11.56263763 0.10299845 14.65933127 0.15319683 17.75683594 0.20410156 C19.85838172 0.2241656 21.95994565 0.24241653 24.06152344 0.25878906 C29.21040763 0.30286576 34.35842497 0.37189898 39.50683594 0.45410156 C39.50683594 0.78410156 39.50683594 1.11410156 39.50683594 1.45410156 C25.31683594 1.45410156 11.12683594 1.45410156 -3.49316406 1.45410156 C-3.82316406 2.44410156 -4.15316406 3.43410156 -4.49316406 4.45410156 C-5.15316406 4.45410156 -5.81316406 4.45410156 -6.49316406 4.45410156 C-6.49316406 67.15410156 -6.49316406 129.85410156 -6.49316406 194.45410156 C-4.51316406 194.45410156 -2.53316406 194.45410156 -0.49316406 194.45410156 C-0.82316406 194.12410156 -1.15316406 193.79410156 -1.49316406 193.45410156 C-1.49316406 192.46410156 -1.49316406 191.47410156 -1.49316406 190.45410156 C0.81683594 190.45410156 3.12683594 190.45410156 5.50683594 190.45410156 C6.00183594 189.46410156 6.00183594 189.46410156 6.50683594 188.45410156 C18.38683594 188.45410156 30.26683594 188.45410156 42.50683594 188.45410156 C42.83683594 191.75410156 43.16683594 195.05410156 43.50683594 198.45410156 C41.92649794 200.03443956 40.31944511 199.59705539 38.12646484 199.61523438 C37.19524811 199.62484192 36.26403137 199.63444946 35.30459595 199.64434814 C34.29110077 199.64859802 33.27760559 199.6528479 32.23339844 199.65722656 C31.19871429 199.66292664 30.16403015 199.66862671 29.09799194 199.67449951 C26.90388009 199.68396589 24.70975391 199.69048996 22.515625 199.69433594 C19.15306866 199.70404028 15.7911236 199.73504813 12.42871094 199.76660156 C10.30111042 199.77313132 8.17350551 199.7783819 6.04589844 199.78222656 C4.53172836 199.80074677 4.53172836 199.80074677 2.98696899 199.81964111 C1.58068741 199.81513947 1.58068741 199.81513947 0.14599609 199.81054688 C-1.09191177 199.81601532 -1.09191177 199.81601532 -2.35482788 199.82159424 C-5.00202613 199.36664895 -5.84469684 198.5302713 -7.49316406 196.45410156 C-8.99966834 193.44109301 -8.64116896 190.33248426 -8.64033508 187.02737427 C-8.64401177 186.25261273 -8.64768846 185.4778512 -8.65147656 184.67961204 C-8.66253737 182.06944179 -8.66636126 179.45931131 -8.67016602 176.84912109 C-8.67642876 174.98341749 -8.68307539 173.11771513 -8.69007874 171.25201416 C-8.70750383 166.17351793 -8.71804419 161.09503112 -8.72628427 156.01651239 C-8.73143027 152.84617988 -8.73750612 149.67585031 -8.74379539 146.50551987 C-8.76285002 136.59353345 -8.77708167 126.68155452 -8.78540736 116.7695533 C-8.79518764 105.31396354 -8.82152665 93.8585666 -8.86190826 82.40304482 C-8.89202481 73.55715362 -8.90687192 64.71131784 -8.91018838 55.86537635 C-8.9125436 50.57786952 -8.92156539 45.29056862 -8.94664955 40.00311661 C-8.96985792 35.03071682 -8.97419278 30.05865961 -8.96388817 25.08621979 C-8.96339096 23.25924671 -8.96976558 21.43225718 -8.98344421 19.60533524 C-9.00105157 17.11474048 -8.99411298 14.62539019 -8.98091125 12.13479614 C-8.9918805 11.40853157 -9.00284975 10.682267 -9.01415139 9.93399441 C-8.97018013 6.50799547 -8.72180988 4.74955079 -6.59714413 2.00412178 C-4.15310408 0.20357644 -3.00433908 -0.03453263 0 0 Z " fill="#BD6D37" transform="translate(217.4931640625,91.5458984375)"/>
<path d="M0 0 C12.21 0 24.42 0 37 0 C36.67 0.99 36.34 1.98 36 3 C28.08 3 20.16 3 12 3 C12 4.98 12 6.96 12 9 C24.21 8.67 36.42 8.34 49 8 C49 8.66 49 9.32 49 10 C46.60417654 11.19791173 45.13222462 11.1206744 42.45849609 11.11352539 C41.51767181 11.11344986 40.57684753 11.11337433 39.60751343 11.11329651 C38.58976837 11.10813522 37.57202332 11.10297394 36.5234375 11.09765625 C35.48305328 11.0962413 34.44266907 11.09482635 33.37075806 11.09336853 C30.03880979 11.08775866 26.70692805 11.07520447 23.375 11.0625 C21.11979264 11.05748627 18.86458422 11.05292314 16.609375 11.04882812 C11.07289386 11.03778603 5.53645168 11.02103827 0 11 C-1 8 -1 8 0 0 Z " fill="#C88441" transform="translate(386,280)"/>
<path d="M0 0 C1.56047445 0.00015913 3.12095416 0.00585397 4.68139648 0.01586914 C5.91115456 0.01799156 5.91115456 0.01799156 7.16575623 0.02015686 C9.79470406 0.0257725 12.42356797 0.0383276 15.05249023 0.05102539 C16.8304838 0.05603838 18.60847869 0.06060163 20.38647461 0.06469727 C24.75434569 0.07574701 29.12215371 0.09302208 33.48999023 0.11352539 C33.48999023 0.44352539 33.48999023 0.77352539 33.48999023 1.11352539 C26.17340707 2.20186714 18.87722296 2.43810501 11.48999023 2.67602539 C10.23831055 2.71920898 8.98663086 2.76239258 7.69702148 2.80688477 C4.628105 2.91230556 1.55911635 3.01442881 -1.51000977 3.11352539 C-1.51000977 3.77352539 -1.51000977 4.43352539 -1.51000977 5.11352539 C1.95499023 6.59852539 1.95499023 6.59852539 5.48999023 8.11352539 C5.48999023 27.91352539 5.48999023 47.71352539 5.48999023 68.11352539 C1.03499023 68.60852539 1.03499023 68.60852539 -3.51000977 69.11352539 C-3.51000977 70.43352539 -3.51000977 71.75352539 -3.51000977 73.11352539 C7.37999023 73.11352539 18.26999023 73.11352539 29.48999023 73.11352539 C29.48999023 71.46352539 29.48999023 69.81352539 29.48999023 68.11352539 C27.50999023 68.11352539 25.52999023 68.11352539 23.48999023 68.11352539 C23.48999023 67.12352539 23.48999023 66.13352539 23.48999023 65.11352539 C23.98499023 65.60852539 23.98499023 65.60852539 24.48999023 66.11352539 C25.83746108 66.34427621 27.19376588 66.52505602 28.55249023 66.67602539 C29.85186523 66.82040039 31.15124023 66.96477539 32.48999023 67.11352539 C32.48999023 69.75352539 32.48999023 72.39352539 32.48999023 75.11352539 C20.27999023 75.11352539 8.06999023 75.11352539 -4.51000977 75.11352539 C-4.51000977 72.47352539 -4.51000977 69.83352539 -4.51000977 67.11352539 C-2.80844727 66.89696289 -2.80844727 66.89696289 -1.07250977 66.67602539 C2.29776224 66.50181061 2.29776224 66.50181061 3.48999023 65.11352539 C3.58358213 63.3948713 3.60743634 61.67236795 3.60351562 59.95117188 C3.60344009 58.85010605 3.60336456 57.74904022 3.60328674 56.61460876 C3.59812546 55.41671219 3.59296417 54.21881561 3.58764648 52.98461914 C3.58623154 51.76525162 3.58481659 50.54588409 3.58335876 49.28956604 C3.5777399 45.37669469 3.5651842 41.46387958 3.55249023 37.55102539 C3.54747766 34.90584392 3.54291434 32.26066156 3.53881836 29.61547852 C3.52776435 23.11480813 3.51100787 16.61417078 3.48999023 10.11352539 C0.84999023 9.78352539 -1.79000977 9.45352539 -4.51000977 9.11352539 C-4.60766602 2.96118164 -4.60766602 2.96118164 -4.51000977 1.11352539 C-3.51000977 0.11352539 -3.51000977 0.11352539 0 0 Z " fill="#B17340" transform="translate(332.510009765625,154.886474609375)"/>
<path d="M0 0 C0.81700882 0.0028299 1.63401764 0.00565979 2.4757843 0.00857544 C5.08426584 0.01976709 7.69240355 0.0448696 10.30078125 0.0703125 C12.0696565 0.08034362 13.83853713 0.08946924 15.60742188 0.09765625 C19.94284074 0.11970308 24.2780027 0.1542258 28.61328125 0.1953125 C28.61328125 0.5253125 28.61328125 0.8553125 28.61328125 1.1953125 C22.17828125 1.6903125 22.17828125 1.6903125 15.61328125 2.1953125 C15.28328125 3.8453125 14.95328125 5.4953125 14.61328125 7.1953125 C11.7665437 8.61868127 9.46712778 8.20290087 6.29296875 8.07421875 C5.03613281 8.02587891 3.77929688 7.97753906 2.484375 7.92773438 C1.16566406 7.87166016 -0.15304687 7.81558594 -1.51171875 7.7578125 C-2.85154313 7.70458837 -4.19138683 7.65184799 -5.53125 7.59960938 C-8.81662762 7.46961242 -12.10172553 7.33463564 -15.38671875 7.1953125 C-15.38671875 5.8753125 -15.38671875 4.5553125 -15.38671875 3.1953125 C-14.78859375 3.0715625 -14.19046875 2.9478125 -13.57421875 2.8203125 C-3.54192713 -0.04605653 -3.54192713 -0.04605653 0 0 Z " fill="#CD702F" transform="translate(403.38671875,91.8046875)"/>
<path d="M0 0 C0.88068649 0.00022659 1.76137299 0.00045319 2.66874695 0.00068665 C3.61570938 0.0161705 4.56267181 0.03165436 5.53833008 0.04760742 C6.51071121 0.05185226 7.48309235 0.05609711 8.48493958 0.06047058 C11.59286099 0.07727302 14.70013567 0.11492838 17.80786133 0.15307617 C19.91397176 0.16812097 22.02009235 0.18180973 24.1262207 0.1940918 C29.29118371 0.22718173 34.45566284 0.27897508 39.62036133 0.34057617 C39.62036133 0.67057617 39.62036133 1.00057617 39.62036133 1.34057617 C25.43036133 1.34057617 11.24036133 1.34057617 -3.37963867 1.34057617 C-3.70963867 2.33057617 -4.03963867 3.32057617 -4.37963867 4.34057617 C-5.03963867 4.34057617 -5.69963867 4.34057617 -6.37963867 4.34057617 C-6.37963867 43.28057617 -6.37963867 82.22057617 -6.37963867 122.34057617 C-6.70963867 122.34057617 -7.03963867 122.34057617 -7.37963867 122.34057617 C-7.44968178 106.87675148 -7.50260377 91.41293863 -7.53507519 75.94899273 C-7.55055217 68.76900115 -7.57165743 61.58910806 -7.60595703 54.40917969 C-7.63583412 48.15204024 -7.65520763 41.89497211 -7.66190416 35.63776332 C-7.66581935 32.32376745 -7.67660355 29.01002354 -7.69682884 25.69608116 C-7.71850218 21.99892282 -7.72160978 18.30219177 -7.72021484 14.60498047 C-7.73100067 13.50302841 -7.7417865 12.40107635 -7.75289917 11.26573181 C-7.74877518 10.26032349 -7.74465118 9.25491516 -7.74040222 8.21903992 C-7.7431676 7.34425838 -7.74593298 6.46947683 -7.74878216 5.56818676 C-6.99046783 0.99210971 -4.29098057 -0.03688522 0 0 Z " fill="#BF753D" transform="translate(217.379638671875,91.659423828125)"/>
<path d="M0 0 C-1.32 0.33 -2.64 0.66 -4 1 C-4.144375 1.804375 -4.28875 2.60875 -4.4375 3.4375 C-5 6 -5 6 -6 7 C-5.34 7.66 -4.68 8.32 -4 9 C-5.1446875 9.4021875 -5.1446875 9.4021875 -6.3125 9.8125 C-8.87380884 10.94424112 -10.19692938 11.91223401 -12 14 C-12.99 13.34 -13.98 12.68 -15 12 C-15.99 12.99 -16.98 13.98 -18 15 C-18.66 14.67 -19.32 14.34 -20 14 C-19.67 12.35 -19.34 10.7 -19 9 C-21.475 10.485 -21.475 10.485 -24 12 C-21.89867603 6.84220481 -18.35514166 3.34345624 -13.25 1.1875 C-8.8386714 -0.31100475 -4.60985962 -0.28811623 0 0 Z " fill="#D9D2C7" transform="translate(283,155)"/>
<path d="M0 0 C1.134375 0.020625 2.26875 0.04125 3.4375 0.0625 C3.7675 0.7225 4.0975 1.3825 4.4375 2.0625 C3.798125 2.35125 3.15875 2.64 2.5 2.9375 C0.28543921 3.89073451 0.28543921 3.89073451 -0.5625 6.0625 C-0.8925 5.4025 -1.2225 4.7425 -1.5625 4.0625 C-1.5625 5.0525 -1.5625 6.0425 -1.5625 7.0625 C2.89572322 7.23219953 7.35409305 7.39770374 11.8125 7.5625 C13.06417969 7.61019531 14.31585938 7.65789062 15.60546875 7.70703125 C22.55344713 7.9616692 29.48477759 8.13553706 36.4375 8.0625 C36.4375 8.7225 36.4375 9.3825 36.4375 10.0625 C24.29058763 13.87923556 7.98480556 10.75062528 -4.5625 10.0625 C-5.52973345 6.67718294 -5.48934799 4.49183756 -4.5625 1.0625 C-3.5625 0.0625 -3.5625 0.0625 0 0 Z " fill="#CF8651" transform="translate(390.5625,90.9375)"/>
<path d="M0 0 C3.3 0.66 6.6 1.32 10 2 C10 4.64 10 7.28 10 10 C-2.21 10 -14.42 10 -27 10 C-27 7.36 -27 4.72 -27 2 C-23.7 1.67 -20.4 1.34 -17 1 C-17 1.66 -17 2.32 -17 3 C-21.455 3.495 -21.455 3.495 -26 4 C-26 5.32 -26 6.64 -26 8 C-15.11 8 -4.22 8 7 8 C7 6.35 7 4.7 7 3 C5.02 3 3.04 3 1 3 C0.67 2.01 0.34 1.02 0 0 Z " fill="#BD7745" transform="translate(355,220)"/>
<path d="M0 0 C1.32 0.33 2.64 0.66 4 1 C4.125 7.75 4.125 7.75 3 10 C-2.82407765 11.57407504 -9.01639051 11.08713994 -15 11 C-15 10.34 -15 9.68 -15 9 C-11.53777385 7.93276039 -8.35960734 7.89826514 -4.75 7.9375 C-3.13351563 7.95103516 -3.13351563 7.95103516 -1.484375 7.96484375 C-0.66453125 7.97644531 0.1553125 7.98804687 1 8 C1 6.35 1 4.7 1 3 C-13.52 3 -28.04 3 -43 3 C-43 2.67 -43 2.34 -43 2 C-28.81 2 -14.62 2 0 2 C0 1.34 0 0.68 0 0 Z " fill="#CD8553" transform="translate(257,91)"/>
<path d="M0 0 C0.83265381 0.00523682 1.66530762 0.01047363 2.52319336 0.01586914 C3.42231445 0.0190918 4.32143555 0.02231445 5.24780273 0.02563477 C6.66609375 0.03820312 6.66609375 0.03820312 8.11303711 0.05102539 C9.06243164 0.05553711 10.01182617 0.06004883 10.98999023 0.06469727 C13.34356776 0.07652429 15.69702188 0.09300514 18.05053711 0.11352539 C18.05053711 0.44352539 18.05053711 0.77352539 18.05053711 1.11352539 C12.11053711 1.11352539 6.17053711 1.11352539 0.05053711 1.11352539 C1.66453684 4.30007321 1.66453684 4.30007321 4.20532227 4.54589844 C5.50928955 4.58517456 5.50928955 4.58517456 6.83959961 4.62524414 C7.78061523 4.66069336 8.72163086 4.69614258 9.69116211 4.73266602 C10.67600586 4.75522461 11.66084961 4.7777832 12.67553711 4.80102539 C14.1644043 4.85226563 14.1644043 4.85226563 15.68334961 4.90454102 C18.13896617 4.98718196 20.59421852 5.05627666 23.05053711 5.11352539 C23.38053711 5.77352539 23.71053711 6.43352539 24.05053711 7.11352539 C21.27329786 7.90040984 18.82443634 8.23302463 15.94116211 8.21118164 C15.18706055 8.20795898 14.43295898 8.20473633 13.65600586 8.20141602 C12.87870117 8.19303711 12.10139648 8.1846582 11.30053711 8.17602539 C10.50776367 8.17151367 9.71499023 8.16700195 8.89819336 8.16235352 C6.94894203 8.15061104 4.99972973 8.13267685 3.05053711 8.11352539 C3.07374023 8.71680664 3.09694336 9.32008789 3.12084961 9.94165039 C3.13889648 10.74086914 3.15694336 11.54008789 3.17553711 12.36352539 C3.19874023 13.15243164 3.22194336 13.94133789 3.24584961 14.75415039 C3.03337491 17.3208448 2.33707816 18.90513209 1.05053711 21.11352539 C0.97706055 20.04811523 0.97706055 20.04811523 0.90209961 18.96118164 C0.78995117 17.5825293 0.78995117 17.5825293 0.67553711 16.17602539 C0.60592773 15.25950195 0.53631836 14.34297852 0.46459961 13.39868164 C0.25963867 12.2675293 0.25963867 12.2675293 0.05053711 11.11352539 C-0.60946289 10.78352539 -1.26946289 10.45352539 -1.94946289 10.11352539 C-2.39868164 8.08227539 -2.39868164 8.08227539 -2.63696289 5.61352539 C-2.72333008 4.79883789 -2.80969727 3.98415039 -2.89868164 3.14477539 C-2.91543945 2.47446289 -2.93219727 1.80415039 -2.94946289 1.11352539 C-1.94946289 0.11352539 -1.94946289 0.11352539 0 0 Z " fill="#D87D3E" transform="translate(215.949462890625,93.886474609375)"/>
<path d="M0 0 C0.66 0 1.32 0 2 0 C2.042721 1.66611905 2.04063832 3.33382885 2 5 C0.41641396 6.58358604 -1.1999036 6.13513663 -3.39624023 6.14526367 C-4.79790688 6.15483345 -4.79790688 6.15483345 -6.22789001 6.16459656 C-7.24452225 6.16570938 -8.26115448 6.1668222 -9.30859375 6.16796875 C-10.34564957 6.17129715 -11.38270538 6.17462555 -12.45118713 6.17805481 C-14.64950109 6.1831286 -16.84782277 6.185463 -19.04614258 6.18530273 C-22.41956201 6.18748838 -25.79265417 6.20563714 -29.16601562 6.22460938 C-31.29687388 6.2275433 -33.42773369 6.2295281 -35.55859375 6.23046875 C-36.57320175 6.23765427 -37.58780975 6.24483978 -38.63316345 6.25224304 C-39.57076004 6.24916641 -40.50835663 6.24608978 -41.47436523 6.24291992 C-42.30185776 6.24434494 -43.12935028 6.24576996 -43.98191833 6.24723816 C-46 6 -46 6 -48 4 C-45.12686592 3.04228864 -43.49554794 2.90347358 -40.52856445 2.97827148 C-39.62785721 2.99836777 -38.72714996 3.01846405 -37.79914856 3.03916931 C-36.83031235 3.06620438 -35.86147614 3.09323944 -34.86328125 3.12109375 C-33.37141548 3.15651024 -33.37141548 3.15651024 -31.84941101 3.19264221 C-28.67029494 3.26926377 -25.49142337 3.35329488 -22.3125 3.4375 C-20.15821512 3.49072218 -18.00391828 3.54346257 -15.84960938 3.59570312 C-10.5662547 3.72487688 -5.28308189 3.86013588 0 4 C0 2.68 0 1.36 0 0 Z " fill="#9D5C3D" transform="translate(259,285)"/>
<path d="M0 0 C16.5 0 33 0 50 0 C50 0.66 50 1.32 50 2 C47.60417654 3.19791173 46.13222462 3.1206744 43.45849609 3.11352539 C42.51767181 3.11344986 41.57684753 3.11337433 40.60751343 3.11329651 C39.58976837 3.10813522 38.57202332 3.10297394 37.5234375 3.09765625 C36.48305328 3.0962413 35.44266907 3.09482635 34.37075806 3.09336853 C31.03880979 3.08775866 27.70692805 3.07520447 24.375 3.0625 C22.11979264 3.05748627 19.86458422 3.05292314 17.609375 3.04882812 C12.07289386 3.03778603 6.53645168 3.02103827 1 3 C0.67 2.01 0.34 1.02 0 0 Z " fill="#A56944" transform="translate(385,288)"/>
<path d="M0 0 C10.23 0 20.46 0 31 0 C30.67 2.31 30.34 4.62 30 7 C28 6 28 6 27 4 C24.62395116 3.56295198 24.62395116 3.56295198 21.7578125 3.4375 C20.69175781 3.36273438 19.62570313 3.28796875 18.52734375 3.2109375 C17.40457031 3.14132812 16.28179687 3.07171875 15.125 3 C12.9187501 2.86226879 10.71296689 2.71678101 8.5078125 2.5625 C7.52441895 2.50191406 6.54102539 2.44132812 5.52783203 2.37890625 C3 2 3 2 0 0 Z " fill="#DDAB2E" transform="translate(229,280)"/>
<path d="M0 0 C0.99 0 1.98 0 3 0 C1.29231921 3.55038751 -0.74198184 6.79398379 -2.87890625 10.09765625 C-4.15121193 12.10493004 -4.15121193 12.10493004 -5 15 C-5.66 15 -6.32 15 -7 15 C-7 14.34 -7 13.68 -7 13 C-8.98 13 -10.96 13 -13 13 C-12.67 12.01 -12.34 11.02 -12 10 C-10.02 9.67 -8.04 9.34 -6 9 C-6 8.34 -6 7.68 -6 7 C-8.31 6.34 -10.62 5.68 -13 5 C-13 4.67 -13 4.34 -13 4 C-12.31292969 3.96261719 -11.62585938 3.92523438 -10.91796875 3.88671875 C-10.01691406 3.82097656 -9.11585938 3.75523437 -8.1875 3.6875 C-7.29417969 3.62949219 -6.40085937 3.57148438 -5.48046875 3.51171875 C-2.63572985 2.92485136 -1.93011924 2.0628495 0 0 Z " fill="#BE733A" transform="translate(368,186)"/>
<path d="M0 0 C1.47906892 -0.02689216 2.95827483 -0.04634621 4.4375 -0.0625 C5.26121094 -0.07410156 6.08492188 -0.08570313 6.93359375 -0.09765625 C9 0 9 0 10 1 C10.09376053 2.81055025 10.1174411 4.62477201 10.11352539 6.43774414 C10.11344986 7.59887222 10.11337433 8.76000031 10.11329651 9.95631409 C10.10813522 11.219832 10.10297394 12.48334991 10.09765625 13.78515625 C10.0962413 15.07111191 10.09482635 16.35706757 10.09336853 17.68199158 C10.08954418 21.10643443 10.07971462 24.53083509 10.06866455 27.95526123 C10.05844864 31.44738189 10.05387053 34.93950934 10.04882812 38.43164062 C10.03809227 45.28777778 10.02101684 52.14388687 10 59 C9.01 59.495 9.01 59.495 8 60 C8 41.19 8 22.38 8 3 C5.36 2.67 2.72 2.34 0 2 C0 1.34 0 0.68 0 0 Z " fill="#A36947" transform="translate(328,162)"/>
<path d="M0 0 C3.465 1.485 3.465 1.485 7 3 C7 5.64 7 8.28 7 11 C3.625 11.125 3.625 11.125 0 11 C-0.66 10.34 -1.32 9.68 -2 9 C-1.01 9 -0.02 9 1 9 C0.67 6.03 0.34 3.06 0 0 Z " fill="#C37743" transform="translate(392,219)"/>
<path d="M0 0 C5.90528268 0.38832925 10.75789181 1.16052473 16 4 C16.33 4.99 16.66 5.98 17 7 C16.01 7 15.02 7 14 7 C14 6.34 14 5.68 14 5 C9.34462607 4.16203269 5.62921525 3.9838308 1 5 C0.67 3.35 0.34 1.7 0 0 Z " fill="#C47540" transform="translate(368,156)"/>
<path d="M0 0 C2.97 0 5.94 0 9 0 C7.68 0.33 6.36 0.66 5 1 C4.855625 1.804375 4.71125 2.60875 4.5625 3.4375 C4 6 4 6 3 7 C3.66 7.66 4.32 8.32 5 9 C3.02 9.66 1.04 10.32 -1 11 C-1.93423645 7.98968256 -2.04449911 7.13349732 -1 4 C-0.34 4 0.32 4 1 4 C0.67 2.68 0.34 1.36 0 0 Z " fill="#C6BEB2" transform="translate(274,155)"/>
<path d="M0 0 C6.93 0.33 13.86 0.66 21 1 C21.33 1.66 21.66 2.32 22 3 C19.14839609 3.81434143 16.63373869 4.11881242 13.671875 4.09765625 C12.87265625 4.09443359 12.0734375 4.09121094 11.25 4.08789062 C10.425 4.07951172 9.6 4.07113281 8.75 4.0625 C7.90953125 4.05798828 7.0690625 4.05347656 6.203125 4.04882812 C4.13538599 4.03707961 2.06768376 4.01914522 0 4 C0 2.68 0 1.36 0 0 Z " fill="#CE804D" transform="translate(218,98)"/>
<path d="M0 0 C6.93 0 13.86 0 21 0 C20.67 0.99 20.34 1.98 20 3 C13.07 3 6.14 3 -1 3 C-0.67 2.01 -0.34 1.02 0 0 Z " fill="#B68820" transform="translate(402,280)"/>
<path d="M0 0 C0 0.66 0 1.32 0 2 C-18.315 1.505 -18.315 1.505 -37 1 C-37 0.67 -37 0.34 -37 0 C-32.21301863 -0.16769074 -27.42587122 -0.3282422 -22.63842773 -0.48217773 C-21.00978145 -0.53555204 -19.3811979 -0.59087782 -17.75268555 -0.64819336 C-15.41208422 -0.73023211 -13.07134712 -0.80525361 -10.73046875 -0.87890625 C-9.63813179 -0.91945885 -9.63813179 -0.91945885 -8.52372742 -0.96083069 C-5.36954376 -1.05398179 -3.02200236 -1.00733412 0 0 Z " fill="#D18147" transform="translate(435,93)"/>
<path d="M0 0 C0.99 0 1.98 0 3 0 C3.26554687 0.61488281 3.53109375 1.22976562 3.8046875 1.86328125 C4.15789062 2.67152344 4.51109375 3.47976562 4.875 4.3125 C5.22304688 5.11300781 5.57109375 5.91351563 5.9296875 6.73828125 C7.02571894 9.1961834 7.02571894 9.1961834 9 12 C8.625 14.1875 8.625 14.1875 8 16 C8 15.34 8 14.68 8 14 C7.34 14 6.68 14 6 14 C4.99515796 12.04414675 3.99626195 10.08523763 3 8.125 C2.1646875 6.48917969 2.1646875 6.48917969 1.3125 4.8203125 C0 2 0 2 0 0 Z " fill="#C07440" transform="translate(366,208)"/>
<path d="M0 0 C1.35439668 2.70879335 1.06501451 5.00933268 1 8 C-1.3125 8.625 -1.3125 8.625 -4 9 C-4.99 8.34 -5.98 7.68 -7 7 C-5.75 4.0625 -5.75 4.0625 -4 1 C-1.8125 0.125 -1.8125 0.125 0 0 Z " fill="#E7E2D6" transform="translate(283,155)"/>
<path d="M0 0 C3.3 0 6.6 0 10 0 C9.67 1.65 9.34 3.3 9 5 C6.36 5 3.72 5 1 5 C0.67 3.35 0.34 1.7 0 0 Z " fill="#DD7933" transform="translate(387,283)"/>
<path d="M0 0 C1.0725 0.144375 2.145 0.28875 3.25 0.4375 C8.81717318 1.1384031 14.4070964 1.56188922 20 2 C20 2.33 20 2.66 20 3 C13.07 3 6.14 3 -1 3 C-0.67 2.01 -0.34 1.02 0 0 Z " fill="#C1793C" transform="translate(224,280)"/>
<path d="M0 0 C2.31 0 4.62 0 7 0 C7 0.33 7 0.66 7 1 C5.35 1.33 3.7 1.66 2 2 C2.165 2.598125 2.33 3.19625 2.5 3.8125 C3 6 3 6 3 9 C2.01 9.495 2.01 9.495 1 10 C-1.125 9.0625 -1.125 9.0625 -3 8 C-2.34 7.67 -1.68 7.34 -1 7 C-0.59270772 4.67843403 -0.25561323 2.3431213 0 0 Z " fill="#C7C0B4" transform="translate(284,155)"/>
<path d="M0 0 C1.875 0.3125 1.875 0.3125 4 1 C6.45391569 4.68087353 6.22802759 7.44355588 6.125 11.6875 C6.11597656 12.38939453 6.10695313 13.09128906 6.09765625 13.81445312 C6.07413704 15.54311525 6.03826713 17.27160145 6 19 C5.67 19 5.34 19 5 19 C4.93941406 18.26394531 4.87882812 17.52789062 4.81640625 16.76953125 C4.73261719 15.79371094 4.64882813 14.81789062 4.5625 13.8125 C4.48128906 12.84957031 4.40007812 11.88664063 4.31640625 10.89453125 C4.02333849 8.21350398 3.57296246 5.6337014 3 3 C2.01 2.67 1.02 2.34 0 2 C0 1.34 0 0.68 0 0 Z " fill="#C88B56" transform="translate(366,164)"/>
<path d="M0 0 C0.98484375 0.00902344 1.9696875 0.01804687 2.984375 0.02734375 C4.10585937 0.04474609 4.10585937 0.04474609 5.25 0.0625 C4.13671875 1.55078125 4.13671875 1.55078125 2.25 3.0625 C-0.66796875 3.35546875 -0.66796875 3.35546875 -3.9375 3.25 C-5.02417969 3.22292969 -6.11085937 3.19585937 -7.23046875 3.16796875 C-8.47763672 3.11576172 -8.47763672 3.11576172 -9.75 3.0625 C-9.75 2.4025 -9.75 1.7425 -9.75 1.0625 C-6.43929162 0.06140485 -3.44915231 -0.04106134 0 0 Z " fill="#E5A476" transform="translate(251.75,98.9375)"/>
<path d="M0 0 C1.32 0 2.64 0 4 0 C4 0.66 4 1.32 4 2 C4.66 2.33 5.32 2.66 6 3 C4.37660195 4.70884005 2.70680947 6.37446717 1 8 C0.34 8 -0.32 8 -1 8 C-0.835 7.236875 -0.67 6.47375 -0.5 5.6875 C0.09145396 2.96403764 0.09145396 2.96403764 0 0 Z " fill="#C5BFB5" transform="translate(297,218)"/>
<path d="M0 0 C0 0.66 0 1.32 0 2 C-4.09003859 3.14982602 -8.03177051 3.11094256 -12.25 3.0625 C-12.99507813 3.05798828 -13.74015625 3.05347656 -14.5078125 3.04882812 C-16.3385764 3.03709246 -18.16929873 3.0191585 -20 3 C-20 2.67 -20 2.34 -20 2 C-19.08476562 1.93941406 -18.16953125 1.87882812 -17.2265625 1.81640625 C-15.44378906 1.69072266 -15.44378906 1.69072266 -13.625 1.5625 C-12.44164062 1.48128906 -11.25828125 1.40007812 -10.0390625 1.31640625 C-6.40357712 0.93790456 -3.75684693 -0.09886439 0 0 Z " fill="#D9B78E" transform="translate(427,99)"/>
<path d="M0 0 C3.63 0 7.26 0 11 0 C11 0.99 11 1.98 11 3 C7.37 3 3.74 3 0 3 C0 2.01 0 1.02 0 0 Z " fill="#D0CBC0" transform="translate(273,228)"/>
<path d="M0 0 C0.66 0 1.32 0 2 0 C2 0.66 2 1.32 2 2 C1.34 2 0.68 2 0 2 C0 3.32 0 4.64 0 6 C2.97 6.495 2.97 6.495 6 7 C3 8 3 8 -1 8 C-1 7.34 -1 6.68 -1 6 C-1.99 5.67 -2.98 5.34 -4 5 C-2.71937515 3.2925002 -1.38232443 1.62626404 0 0 Z " fill="#DE9362" transform="translate(386,222)"/>
<path d="M0 0 C0.33 0 0.66 0 1 0 C1 2.31 1 4.62 1 7 C2.32 7.66 3.64 8.32 5 9 C4.34 10.32 3.68 11.64 3 13 C0.95204577 11.0373772 0.05023362 9.5722693 -0.19921875 6.73046875 C-0.18858877 4.48045617 -0.12958525 2.24614438 0 0 Z M5 7 C7 8 7 8 7 8 Z " fill="#B8B0A7" transform="translate(254,211)"/>
<path d="M0 0 C0.66 0.33 1.32 0.66 2 1 C1.01 2.98 0.02 4.96 -1 7 C-1.66 7 -2.32 7 -3 7 C-3.33 7.66 -3.66 8.32 -4 9 C-4.33 7.35 -4.66 5.7 -5 4 C-3.35 2.68 -1.7 1.36 0 0 Z " fill="#E4DED4" transform="translate(263,163)"/>
<path d="M0 0 C1.47906892 -0.02689216 2.95827483 -0.04634621 4.4375 -0.0625 C5.26121094 -0.07410156 6.08492188 -0.08570313 6.93359375 -0.09765625 C9 0 9 0 10 1 C10.14115161 3.67058851 10.04247107 6.32432238 10 9 C9.67 9 9.34 9 9 9 C8.67 7.02 8.34 5.04 8 3 C5.36 2.67 2.72 2.34 0 2 C0 1.34 0 0.68 0 0 Z " fill="#AB6D3D" transform="translate(328,162)"/>
<path d="M0 0 C0.66 0 1.32 0 2 0 C2 1.65 2 3.3 2 5 C-1.0979597 6.54897985 -4.26216552 5.83239539 -7.625 5.5625 C-8.33140625 5.51029297 -9.0378125 5.45808594 -9.765625 5.40429688 C-11.51079987 5.27458793 -13.25545725 5.13795046 -15 5 C-15 4.67 -15 4.34 -15 4 C-10.05 4 -5.1 4 0 4 C0 2.68 0 1.36 0 0 Z " fill="#C98A5B" transform="translate(259,285)"/>
<path d="M0 0 C1.66611905 -0.042721 3.33382885 -0.04063832 5 0 C6.58272601 1.58272601 6.34735747 3.38034003 6.5625 5.5625 C6.64628906 6.38878906 6.73007812 7.21507812 6.81640625 8.06640625 C6.87699219 8.70449219 6.93757813 9.34257812 7 10 C6.01 10 5.02 10 4 10 C2.875 3.25 2.875 3.25 4 1 C2.68 0.67 1.36 0.34 0 0 Z " fill="#C2BCB6" transform="translate(262,205)"/>
<path d="M0 0 C1.65 0 3.3 0 5 0 C4.34 1.98 3.68 3.96 3 6 C2.01 6 1.02 6 0 6 C0 4.02 0 2.04 0 0 Z " fill="#D9D2C7" transform="translate(292,222)"/>
<path d="M0 0 C2.03448779 0.41740567 4.05401678 0.90895178 6.0625 1.4375 C7.71958984 1.86869141 7.71958984 1.86869141 9.41015625 2.30859375 C10.26480469 2.53675781 11.11945313 2.76492187 12 3 C12 3.33 12 3.66 12 4 C3.80743982 4.4726477 3.80743982 4.4726477 0.4375 2.5 C-0.036875 2.005 -0.51125 1.51 -1 1 C-0.67 0.67 -0.34 0.34 0 0 Z " fill="#E6E0D5" transform="translate(270,220)"/>
<path d="M0 0 C3.48331435 3.01887244 4.79157144 5.56909529 6 10 C5.01 9.67 4.02 9.34 3 9 C2.67 7.35 2.34 5.7 2 4 C1.34 4 0.68 4 0 4 C0 2.68 0 1.36 0 0 Z " fill="#BB6C3F" transform="translate(378,197)"/>
<path d="M0 0 C0.6875 1.75 0.6875 1.75 1 4 C-0.4375 6.25 -0.4375 6.25 -2 8 C-2.99 7.67 -3.98 7.34 -5 7 C-4.34 5.35 -3.68 3.7 -3 2 C-2.34 2 -1.68 2 -1 2 C-0.67 1.34 -0.34 0.68 0 0 Z " fill="#C8C4BE" transform="translate(304,167)"/>
<path d="M0 0 C2.31 0 4.62 0 7 0 C7.33 0.99 7.66 1.98 8 3 C5.69 3 3.38 3 1 3 C0.67 2.01 0.34 1.02 0 0 Z " fill="#D07939" transform="translate(210,286)"/>
<path d="M0 0 C6.52307692 0.49230769 6.52307692 0.49230769 8.9375 3.0625 C9.288125 3.701875 9.63875 4.34125 10 5 C5.2482602 4.56802365 3.07999946 3.67230705 0 0 Z " fill="#B47144" transform="translate(375,224)"/>
<path d="M0 0 C2.16874252 0.50603992 3.99967627 0.99983813 6 2 C6 2.66 6 3.32 6 4 C4.35 3.67 2.7 3.34 1 3 C1 3.66 1 4.32 1 5 C0.34 5 -0.32 5 -1 5 C-0.67 3.35 -0.34 1.7 0 0 Z " fill="#DDA04E" transform="translate(386,280)"/>
<path d="M0 0 C1.9375 0.625 1.9375 0.625 4 2 C4.75 5.125 4.75 5.125 5 8 C4.67 7.34 4.34 6.68 4 6 C3.34 6 2.68 6 2 6 C1.34 4.02 0.68 2.04 0 0 Z " fill="#AF6E39" transform="translate(370,216)"/>
<path d="M0 0 C1.98 0 3.96 0 6 0 C5.67 0.99 5.34 1.98 5 3 C3.35 3 1.7 3 0 3 C0 2.01 0 1.02 0 0 Z " fill="#DFAB50" transform="translate(218,280)"/>
<path d="M0 0 C2.62187494 1.04874998 3.79371361 1.64931313 5.25 4.125 C5.4975 4.74375 5.745 5.3625 6 6 C3.5625 5.25 3.5625 5.25 1 4 C0.1875 1.875 0.1875 1.875 0 0 Z " fill="#B86A39" transform="translate(386,213)"/>
<path d="M0 0 C1.32 0 2.64 0 4 0 C3.34 1.32 2.68 2.64 2 4 C1.01 4 0.02 4 -1 4 C-0.67 2.68 -0.34 1.36 0 0 Z " fill="#C07138" transform="translate(382,187)"/>
</svg>
